<mxfile host="app.diagrams.net" modified="2024-01-31T01:27:43.360Z" agent="Mozilla/5.0 (Macintosh; Intel Mac OS X 10_15_7) AppleWebKit/537.36 (KHTML, like Gecko) Chrome/121.0.0.0 Safari/537.36" etag="PddF2nqm9zFRVKGLIW8s" version="23.0.1" type="github">
  <diagram id="R2lEEEUBdFMjLlhIrx00" name="Page-1">
    <mxGraphModel dx="1204" dy="839" grid="1" gridSize="10" guides="1" tooltips="1" connect="1" arrows="1" fold="1" page="1" pageScale="1" pageWidth="850" pageHeight="1100" math="0" shadow="0" extFonts="Permanent Marker^https://fonts.googleapis.com/css?family=Permanent+Marker">
      <root>
        <mxCell id="0" />
        <mxCell id="1" parent="0" />
        <mxCell id="AczBs8FZyqHFINY416Rb-1" value="유저" style="whiteSpace=wrap;html=1;align=center;" vertex="1" parent="1">
          <mxGeometry x="100" y="140" width="100" height="40" as="geometry" />
        </mxCell>
        <mxCell id="AczBs8FZyqHFINY416Rb-2" value="게시글" style="whiteSpace=wrap;html=1;align=center;" vertex="1" parent="1">
          <mxGeometry x="350" y="140" width="100" height="40" as="geometry" />
        </mxCell>
        <mxCell id="AczBs8FZyqHFINY416Rb-3" value="친구" style="whiteSpace=wrap;html=1;align=center;" vertex="1" parent="1">
          <mxGeometry x="100" y="330" width="100" height="40" as="geometry" />
        </mxCell>
        <mxCell id="AczBs8FZyqHFINY416Rb-4" value="댓글" style="whiteSpace=wrap;html=1;align=center;" vertex="1" parent="1">
          <mxGeometry x="610" y="140" width="100" height="40" as="geometry" />
        </mxCell>
      </root>
    </mxGraphModel>
  </diagram>
</mxfile>
